<svg width="259" height="133" viewBox="0 0 259 133" fill="none" xmlns="http://www.w3.org/2000/svg">
<path d="M82.4677 76.032C82.0837 77.088 79.4917 77.712 74.6917 77.904H74.8357C76.3717 77.904 75.9397 78.192 73.5397 78.768C71.4277 79.248 69.6517 79.488 68.2117 79.488C64.9477 91.488 62.8837 98.976 62.0197 101.952C61.1557 104.928 60.4357 107.472 59.8597 109.584C59.3797 111.6 58.6597 113.568 57.6997 115.488L56.2597 118.512C56.2597 118.992 56.3077 119.376 56.4037 119.664C55.3477 123.6 53.6197 126.624 51.2197 128.736C48.9157 130.944 46.3717 132.24 43.5877 132.624C40.8037 133.008 38.0197 132.48 35.2357 131.04C32.5477 129.6 30.2917 127.248 28.4677 123.984L29.4757 117.072C28.8037 116.496 27.9877 116.112 27.0277 115.92C26.1637 115.728 25.3477 115.536 24.5797 115.344C22.5637 114.864 21.5557 113.808 21.5557 112.176C22.6117 108.24 23.5237 104.448 24.2917 100.8C25.0597 97.056 26.4997 93.6 28.6117 90.432L30.3397 85.68L20.9797 86.4C15.9877 86.784 12.4837 86.448 10.4677 85.392C8.45169 84.24 6.57969 82.704 4.85169 80.784C3.21969 78.768 1.97169 76.848 1.10769 75.024C0.147692 73.2 -0.188308 71.28 0.0996923 69.264C0.483692 65.616 3.02769 60.72 7.73169 54.576C12.5317 48.432 16.6597 43.248 20.1157 39.024C23.5717 34.8 27.1237 30.816 30.7717 27.072C38.1637 19.488 46.8997 11.808 56.9797 4.032C60.2437 1.344 64.5157 0 69.7957 0C73.9237 0.192003 76.8517 0.720007 78.5797 1.58401C81.9397 3.12 84.0517 5.568 84.9157 8.92801V10.08C87.8917 12.384 88.7077 15.312 87.3637 18.864C86.5957 21.36 85.2037 24.144 83.1877 27.216C81.1717 30.288 79.9717 32.496 79.5877 33.84L76.5637 45.36C76.0837 47.184 75.6517 48.864 75.2677 50.4C74.9797 51.84 74.6437 53.328 74.2597 54.864C73.9717 56.304 73.6357 57.792 73.2517 59.328C72.8677 60.768 72.4837 62.4 72.0997 64.224L74.6917 64.08C75.5557 64.08 76.4197 64.08 77.2837 64.08C77.9557 63.792 78.6757 63.504 79.4437 63.216C80.2117 62.832 80.9797 62.544 81.7477 62.352C83.5717 62.064 84.9157 62.496 85.7797 63.648C86.6437 64.8 87.1237 66.144 87.2197 67.68C87.3157 69.12 87.1717 70.464 86.7877 71.712C86.4037 72.96 85.7797 74.016 84.9157 74.88C84.1477 75.648 83.3317 76.032 82.4677 76.032ZM43.7317 45.936C31.8277 57.264 25.0117 63.984 23.2837 66.096C21.6517 68.208 20.8837 69.552 20.9797 70.128C21.1717 70.608 21.8917 70.752 23.1397 70.56C24.4837 70.368 26.2117 69.936 28.3237 69.264C30.4357 68.592 32.7877 67.92 35.3797 67.248C35.7637 66 36.7717 63.408 38.4037 59.472C41.6677 51.696 43.4437 47.184 43.7317 45.936ZM55.2517 121.68C55.3477 121.2 55.4437 120.768 55.5397 120.384C54.8677 122.112 54.7717 122.544 55.2517 121.68Z" fill="white"/>
<path d="M110.532 20.16C111.972 17.376 114.276 14.64 117.444 11.952C120.612 9.264 124.164 7.008 128.1 5.184C137.22 0.959999 145.38 0.48 152.58 3.744C156.42 5.472 158.484 6.624 158.772 7.2C159.156 7.776 159.3 8.4 159.204 9.072C159.108 9.744 159.108 10.752 159.204 12.096C167.748 8.736 173.892 11.184 177.636 19.44C180.9 26.832 181.764 36.912 180.228 49.68C178.596 62.448 175.38 73.344 170.58 82.368C167.028 92.448 161.412 101.904 153.732 110.736C150.756 114.288 147.972 116.976 145.38 118.8C142.884 120.72 141.108 121.584 140.052 121.392C138.132 121.776 136.404 122.16 134.868 122.544C132.756 123.12 130.932 123.408 129.396 123.408C129.204 123.6 129.012 123.744 128.82 123.84C128.724 123.936 128.628 124.08 128.532 124.272L124.212 125.568C124.02 127.104 122.772 128.16 120.468 128.736C118.164 129.408 115.524 129.552 112.548 129.168C109.668 128.784 106.74 127.92 103.764 126.576C100.788 125.328 98.5799 123.504 97.1399 121.104C94.8359 115.92 93.3479 111.792 92.6759 108.72C90.7559 98.544 90.9479 85.488 93.2519 69.552C94.9799 57.84 98.0519 46.992 102.468 37.008C104.676 31.824 107.364 26.208 110.532 20.16ZM137.46 36.432C130.356 50.64 125.604 65.904 123.204 82.224C122.436 87.888 122.292 93.168 122.772 98.064H123.06L123.204 97.92C133.38 82.56 141.06 65.904 146.244 47.952C147.972 41.712 148.74 36.768 148.548 33.12C148.452 29.472 147.828 27.12 146.676 26.064C146.292 26.448 146.052 26.64 145.956 26.64C145.956 26.64 145.908 26.544 145.812 26.352C145.428 25.872 144.9 25.68 144.228 25.776C142.884 27.6 141.636 29.472 140.484 31.392L137.46 36.432Z" fill="white"/>
<path d="M253.468 76.032C253.084 77.088 250.492 77.712 245.692 77.904H245.836C247.372 77.904 246.94 78.192 244.54 78.768C242.428 79.248 240.652 79.488 239.212 79.488C235.948 91.488 233.884 98.976 233.02 101.952C232.156 104.928 231.436 107.472 230.86 109.584C230.38 111.6 229.66 113.568 228.7 115.488L227.26 118.512C227.26 118.992 227.308 119.376 227.404 119.664C226.348 123.6 224.62 126.624 222.22 128.736C219.916 130.944 217.372 132.24 214.588 132.624C211.804 133.008 209.02 132.48 206.236 131.04C203.548 129.6 201.292 127.248 199.468 123.984L200.476 117.072C199.804 116.496 198.988 116.112 198.028 115.92C197.164 115.728 196.348 115.536 195.58 115.344C193.564 114.864 192.556 113.808 192.556 112.176C193.612 108.24 194.524 104.448 195.292 100.8C196.06 97.056 197.5 93.6 199.612 90.432L201.34 85.68L191.98 86.4C186.988 86.784 183.484 86.448 181.468 85.392C179.452 84.24 177.58 82.704 175.852 80.784C174.22 78.768 172.972 76.848 172.108 75.024C171.148 73.2 170.812 71.28 171.1 69.264C171.484 65.616 174.028 60.72 178.732 54.576C183.532 48.432 187.66 43.248 191.116 39.024C194.572 34.8 198.124 30.816 201.772 27.072C209.164 19.488 217.9 11.808 227.98 4.032C231.244 1.344 235.516 0 240.796 0C244.924 0.192003 247.852 0.720007 249.58 1.58401C252.94 3.12 255.052 5.568 255.916 8.92801V10.08C258.892 12.384 259.708 15.312 258.364 18.864C257.596 21.36 256.204 24.144 254.188 27.216C252.172 30.288 250.972 32.496 250.588 33.84L247.564 45.36C247.084 47.184 246.652 48.864 246.268 50.4C245.98 51.84 245.644 53.328 245.26 54.864C244.972 56.304 244.636 57.792 244.252 59.328C243.868 60.768 243.484 62.4 243.1 64.224L245.692 64.08C246.556 64.08 247.42 64.08 248.284 64.08C248.956 63.792 249.676 63.504 250.444 63.216C251.212 62.832 251.98 62.544 252.748 62.352C254.572 62.064 255.916 62.496 256.78 63.648C257.644 64.8 258.124 66.144 258.22 67.68C258.316 69.12 258.172 70.464 257.788 71.712C257.404 72.96 256.78 74.016 255.916 74.88C255.148 75.648 254.332 76.032 253.468 76.032ZM214.732 45.936C202.828 57.264 196.012 63.984 194.284 66.096C192.652 68.208 191.884 69.552 191.98 70.128C192.172 70.608 192.892 70.752 194.14 70.56C195.484 70.368 197.212 69.936 199.324 69.264C201.436 68.592 203.788 67.92 206.38 67.248C206.764 66 207.772 63.408 209.404 59.472C212.668 51.696 214.444 47.184 214.732 45.936ZM226.252 121.68C226.348 121.2 226.444 120.768 226.54 120.384C225.868 122.112 225.772 122.544 226.252 121.68Z" fill="white"/>
</svg>
