<svg width="259" height="122" viewBox="0 0 259 122" fill="none" xmlns="http://www.w3.org/2000/svg">
<path d="M39.3831 6.02531C42.7017 5.93364 45.9281 5.75031 49.0623 5.47531C52.1965 5.10864 55.469 4.78781 58.8798 4.51281C62.2905 4.14615 65.6552 3.82531 68.9738 3.55031C72.2924 3.27531 75.2883 3.18365 77.9616 3.27532C83.9535 3.36698 86.9495 4.37531 86.9495 6.30031C89.2541 13.542 87.6409 19.0419 82.1099 22.8003C79.8975 24.2669 76.2563 25.3669 71.1862 26.1003C66.1161 26.8336 62.5671 27.1086 60.5391 26.9253C57.6814 26.5586 55.4229 26.3753 53.7636 26.3753C52.5652 28.3919 50.7677 31.1877 48.3709 34.7627C45.9742 38.2461 43.6235 41.7294 41.3189 45.2127L38.6917 51.1252C40.351 48.7419 44.6836 47.1835 51.6895 46.4502C58.511 45.7169 64.0881 46.221 68.4207 47.9627C77.0859 51.9043 81.8333 57.9543 82.663 66.1126C83.1239 71.3376 81.7872 78.3043 78.653 87.0126C76.2563 93.6126 72.2463 99.5709 66.6231 104.888C61.7374 109.563 56.2986 113.138 50.3068 115.613C38.4152 120.654 25.3252 121.021 11.0368 116.713C8.36351 115.979 6.15112 114.742 4.39964 113C2.74035 111.35 1.54197 109.517 0.804506 107.5C0.0670421 105.483 -0.163415 103.467 0.113134 101.45C0.389683 99.3417 1.26542 97.5542 2.74035 96.0876C6.05893 92.6042 11.2212 91.6417 18.2271 93.2001C24.7721 94.5751 29.3812 94.8501 32.0545 94.0251C34.7278 93.1084 36.9863 91.7792 38.83 90.0376C40.6736 88.2959 42.1025 86.5084 43.1165 84.6751C44.2227 82.7501 45.0062 81.2834 45.4671 80.2751C45.9281 79.1751 46.2507 78.0751 46.4351 76.9751C46.896 74.0418 46.2968 72.2085 44.6375 71.4751C43.6235 71.1085 41.9181 71.1085 39.5213 71.4751C37.1246 71.8418 34.4513 72.2543 31.5014 72.7126C28.5516 73.171 25.5556 73.5835 22.5136 73.9501C19.4716 74.3168 16.8443 74.3168 14.6319 73.9501C9.65407 73.1251 8.13305 70.1001 10.0689 64.8752C9.97671 64.6002 10.0228 64.646 10.2072 65.0126C10.3915 65.3793 10.4837 65.4252 10.4837 65.1502C7.99478 63.5918 6.75031 61.0252 6.75031 57.4502C8.22523 53.2335 10.0228 49.1085 12.143 45.0752C14.3554 40.9502 16.1991 37.5127 17.674 34.7627C19.2411 31.9211 20.4395 29.7211 21.2691 28.1627C22.191 26.5127 23.0667 24.8169 23.8963 23.0753C23.4354 23.2586 23.205 23.2128 23.205 22.9378C23.2971 22.5711 23.4815 22.1128 23.7581 21.5628C24.1268 21.0128 24.4955 20.4169 24.8643 19.7753C25.3252 19.0419 25.6939 18.4003 25.9705 17.8503C24.7721 13.9086 26.1548 10.8378 30.1187 8.6378C33.0685 6.9878 36.1567 6.11697 39.3831 6.02531ZM25.0025 21.4253C25.4634 20.6919 25.8322 20.0503 26.1087 19.5003C26.4775 18.9503 26.4314 18.7669 25.9705 18.9503C25.6017 19.1336 25.3713 19.5003 25.2791 20.0503C25.1869 20.5086 25.0947 20.9669 25.0025 21.4253ZM71.3245 6.30031C73.4447 6.48364 74.597 6.4378 74.7813 6.1628C74.9657 5.88781 73.8134 5.93364 71.3245 6.30031ZM35.6497 69.0001C35.2809 68.9085 35.3731 68.9085 35.9262 69.0001H35.6497Z" fill="white"/>
<path d="M108.457 17.7128C109.839 15.0545 112.052 12.442 115.094 9.87529C118.136 7.30863 121.547 5.15447 125.326 3.41281C134.083 -0.620512 141.919 -1.07884 148.833 2.03782C152.52 3.68781 154.502 4.78781 154.779 5.33781C155.147 5.8878 155.286 6.48364 155.193 7.1253C155.101 7.76697 155.101 8.72946 155.193 10.0128C163.398 6.80447 169.297 9.14196 172.892 17.0253C176.027 24.0836 176.856 33.7086 175.381 45.9002C173.814 58.0918 170.726 68.496 166.117 77.1126C162.706 86.7376 157.314 95.7667 149.939 104.2C147.081 107.592 144.408 110.158 141.919 111.9C139.522 113.733 137.817 114.558 136.803 114.375C134.959 114.742 133.3 115.108 131.825 115.475C129.797 116.025 128.045 116.3 126.571 116.3C126.386 116.483 126.202 116.621 126.017 116.713C125.925 116.804 125.833 116.942 125.741 117.125L121.593 118.363C121.408 119.829 120.21 120.838 117.997 121.387C115.785 122.029 113.25 122.167 110.392 121.8C107.627 121.433 104.815 120.608 101.958 119.325C99.1 118.133 96.9798 116.392 95.597 114.1C93.3846 109.15 91.9558 105.208 91.3105 102.275C89.4669 92.5584 89.6512 80.0918 91.8636 64.8752C93.5229 53.6918 96.4728 43.3335 100.713 33.8002C102.833 28.8502 105.415 23.4878 108.457 17.7128ZM134.314 33.2502C127.492 46.8169 122.929 61.3918 120.625 76.9751C119.887 82.3834 119.749 87.4251 120.21 92.1001H120.486L120.625 91.9626C130.396 77.296 137.771 61.3918 142.749 44.2502C144.408 38.2919 145.145 33.5711 144.961 30.0877C144.869 26.6044 144.27 24.3586 143.163 23.3503C142.795 23.7169 142.564 23.9003 142.472 23.9003C142.472 23.9003 142.426 23.8086 142.334 23.6253C141.965 23.1669 141.458 22.9836 140.813 23.0753C139.522 24.8169 138.324 26.6044 137.218 28.4377L134.314 33.2502Z" fill="white"/>
<path d="M191.367 17.7128C192.75 15.0545 194.962 12.442 198.004 9.87529C201.046 7.30863 204.457 5.15447 208.237 3.41281C216.994 -0.620512 224.83 -1.07884 231.743 2.03782C235.431 3.68781 237.413 4.78781 237.689 5.33781C238.058 5.8878 238.196 6.48364 238.104 7.1253C238.012 7.76697 238.012 8.72946 238.104 10.0128C246.308 6.80447 252.208 9.14196 255.803 17.0253C258.937 24.0836 259.767 33.7086 258.292 45.9002C256.725 58.0918 253.637 68.496 249.028 77.1126C245.617 86.7376 240.224 95.7667 232.85 104.2C229.992 107.592 227.319 110.158 224.83 111.9C222.433 113.733 220.727 114.558 219.713 114.375C217.87 114.742 216.211 115.108 214.736 115.475C212.708 116.025 210.956 116.3 209.481 116.3C209.297 116.483 209.112 116.621 208.928 116.713C208.836 116.804 208.744 116.942 208.652 117.125L204.503 118.363C204.319 119.829 203.121 120.838 200.908 121.387C198.696 122.029 196.161 122.167 193.303 121.8C190.538 121.433 187.726 120.608 184.868 119.325C182.011 118.133 179.89 116.392 178.508 114.1C176.295 109.15 174.866 105.208 174.221 102.275C172.378 92.5584 172.562 80.0918 174.774 64.8752C176.434 53.6918 179.383 43.3335 183.624 33.8002C185.744 28.8502 188.325 23.4878 191.367 17.7128ZM217.225 33.2502C210.403 46.8169 205.84 61.3918 203.535 76.9751C202.798 82.3834 202.66 87.4251 203.121 92.1001H203.397L203.535 91.9626C213.307 77.296 220.681 61.3918 225.659 44.2502C227.319 38.2919 228.056 33.5711 227.872 30.0877C227.779 26.6044 227.18 24.3586 226.074 23.3503C225.705 23.7169 225.475 23.9003 225.383 23.9003C225.383 23.9003 225.337 23.8086 225.244 23.6253C224.876 23.1669 224.369 22.9836 223.723 23.0753C222.433 24.8169 221.234 26.6044 220.128 28.4377L217.225 33.2502Z" fill="white"/>
</svg>
